<svg width="22" height="22" viewBox="0 0 22 22" fill="none" xmlns="http://www.w3.org/2000/svg">
<path fill-rule="evenodd" clip-rule="evenodd" d="M11 0C17.0751 0 22 4.92482 22 11C22 17.0751 17.0751 22 11 22C4.92489 22 0 17.0751 0 11C0 4.92482 4.92489 0 11 0ZM10.9999 14.575C10.2405 14.575 9.62494 15.1906 9.62494 15.95C9.62494 16.7094 10.2405 17.325 10.9999 17.325C11.7593 17.325 12.3749 16.7094 12.3749 15.95C12.3749 15.1906 11.7593 14.575 10.9999 14.575ZM10.8164 4.81257C9.74571 4.81257 8.84579 5.10429 8.11774 5.68604C7.25501 6.38295 6.82397 7.41217 6.82397 8.77456H9.16295V8.75885C9.16295 8.23906 9.27245 7.81266 9.49086 7.48012C9.79231 7.03305 10.2812 6.80934 10.9571 6.80934C11.373 6.80934 11.727 6.91851 12.0177 7.1365C12.3814 7.43856 12.5639 7.89578 12.5639 8.50929C12.5639 8.89413 12.4699 9.23707 12.283 9.53879C12.1269 9.80908 11.8774 10.074 11.5338 10.3342C10.806 10.8332 10.3328 11.3272 10.1148 11.8162C9.92759 12.2217 9.83353 12.8664 9.83353 13.75H12.0335C12.0335 13.1676 12.1109 12.7311 12.2676 12.4399C12.3921 12.2007 12.6524 11.9461 13.0475 11.6756C13.7341 11.1658 14.2224 10.6926 14.5138 10.2558C14.8671 9.73612 15.0442 9.12757 15.0442 8.43068C15.0442 6.98645 14.4568 5.96198 13.281 5.35854C12.5743 4.99478 11.7528 4.81257 10.8164 4.81257Z" fill="#343434"/>
</svg>
